<?xml version="1.0" encoding="utf-8"?>
<!-- Generator: Adobe Illustrator 24.1.2, SVG Export Plug-In . SVG Version: 6.00 Build 0)  -->
<svg version="1.1" id="Camada_1" xmlns="http://www.w3.org/2000/svg" xmlns:xlink="http://www.w3.org/1999/xlink" x="0px" y="0px"
	 viewBox="0 0 468 486" style="enable-background:new 0 0 468 486;" xml:space="preserve">
<style type="text/css">
	.st0{fill:#E8594F;}
	.st1{fill:#F4AD47;}
	.st2{fill:#61C7D2;}
	.st3{fill:#231F20;}
</style>
<rect x="95.9" y="286.8" class="st0" width="42.8" height="101"/>
<rect x="174.2" y="235.5" class="st1" width="43.5" height="152.2"/>
<rect x="253.2" y="126.4" class="st2" width="42.8" height="261.3"/>
<rect x="331.5" y="187.3" class="st1" width="43.5" height="200.4"/>
<path class="st3" d="M453,382.1l-30.9-29.6c-3.2-3.1-8.4-3-11.5,0.2c-3.1,3.2-3,8.4,0.2,11.5l16.1,15.5h-44V187.3
	c0-4.5-3.6-8.1-8.1-8.1h-43.5c-4.5,0-8.1,3.6-8.1,8.1v192.3h-19.3V126.4c0-4.5-3.6-8.1-8.1-8.1h-42.8c-4.5,0-8.1,3.6-8.1,8.1v253.2
	h-19.3V235.5c0-4.5-3.6-8.1-8.1-8.1h-43.5c-4.5,0-8.1,3.6-8.1,8.1v144.1h-19.3v-92.8c0-4.5-3.6-8.1-8.1-8.1H95.9
	c-4.5,0-8.1,3.6-8.1,8.1v92.8H60.4V102.1L77,119.9c1.6,1.7,3.8,2.6,5.9,2.6c2,0,4-0.7,5.5-2.2c3.3-3.1,3.5-8.2,0.4-11.5L58.2,75.9
	c-1.5-1.6-3.7-2.6-5.9-2.6s-4.4,0.9-5.9,2.6l-30.6,32.9c-3.1,3.3-2.9,8.4,0.4,11.5c3.3,3.1,8.4,2.9,11.5-0.4l16.6-17.8v285.6
	c0,4.5,3.6,8.1,8.1,8.1h375.2l-16.5,15.8c-3.2,3.1-3.3,8.2-0.2,11.5c1.6,1.7,3.7,2.5,5.9,2.5c2,0,4-0.8,5.6-2.3l30.9-29.6
	c1.6-1.5,2.5-3.6,2.5-5.9C455.5,385.7,454.6,383.6,453,382.1z M104,379.6v-84.7h26.6v84.7H104L104,379.6z M182.3,379.6v-136h27.2
	v136L182.3,379.6L182.3,379.6z M261.3,379.6V134.6h26.6v245.1L261.3,379.6L261.3,379.6z M339.6,379.6V195.4h27.2v184.2L339.6,379.6
	L339.6,379.6z"/>
<rect width="7" height="486"/>
<rect x="461.3" width="7" height="485"/>
<rect x="230.5" y="-230.5" transform="matrix(6.123234e-17 -1 1 6.123234e-17 230.5 237.5)" width="7" height="468"/>
<rect x="231" y="248.5" transform="matrix(6.123234e-17 -1 1 6.123234e-17 -247.9915 717.0085)" width="7" height="468"/>
</svg>
